<svg xmlns="http://www.w3.org/2000/svg" version="1.1" xmlns:xlink="http://www.w3.org/1999/xlink" xmlns:svgjs="http://svgjs.dev/svgjs" width="1440" height="560" preserveAspectRatio="none" viewBox="0 0 1440 560"><g mask="url(&quot;#SvgjsMask1003&quot;)" fill="none"><rect width="1440" height="560" x="0" y="0" fill="rgba(221, 170, 74, 0.45)"></rect><path d="M375.39 619.69C571.8 594.36 685.17 146.43 1009.49 144.89 1333.81 143.35 1477.26 344.08 1643.59 346.49" stroke="rgba(51,121,194,0.58)" stroke-width="2"></path><path d="M578.73 631.65C716.91 621.09 794.24 356.77 1054.57 347.3 1314.9 337.83 1406.42 208.74 1530.41 207.3" stroke="rgba(51,121,194,0.58)" stroke-width="2"></path><path d="M487.94 596.6C654.26 563.67 727.44 140.95 987.61 138.02 1247.77 135.09 1355.5 303.79 1487.27 306.02" stroke="rgba(51,121,194,0.58)" stroke-width="2"></path><path d="M406.27 602.28C538.91 579.61 599.36 256.56 815.59 252.74 1031.81 248.92 1020.25 322.74 1224.9 322.74 1429.56 322.74 1530.41 252.99 1634.22 252.74" stroke="rgba(51,121,194,0.58)" stroke-width="2"></path><path d="M283.17 663.65C439.67 660.87 561.7 466.82 875.51 460.85 1189.31 454.88 1310.52 251.25 1467.84 248.05" stroke="rgba(51,121,194,0.58)" stroke-width="2"></path></g><defs><mask id="SvgjsMask1003"><rect width="1440" height="560" fill="#ffffff"></rect></mask></defs></svg>