<svg xmlns="http://www.w3.org/2000/svg" version="1.1" xmlns:xlink="http://www.w3.org/1999/xlink" xmlns:svgjs="http://svgjs.dev/svgjs" width="1440" height="560" preserveAspectRatio="none" viewBox="0 0 1440 560"><g mask="url(&quot;#SvgjsMask1030&quot;)" fill="none"><rect width="1440" height="560" x="0" y="0" fill="rgba(221, 170, 74, 0.45)"></rect><path d="M602.38 585.99C745.34 575.59 815.02 314.11 1097.16 296.28 1379.31 278.45 1452.7 46.24 1591.95 38.68" stroke="rgba(51,121,194,0.58)" stroke-width="2"></path><path d="M343.84 561.74C504.37 559.98 638.6 388.17 960.96 384.1 1283.32 380.03 1416.22 190.44 1578.08 188.1" stroke="rgba(51,121,194,0.58)" stroke-width="2"></path><path d="M96.43 617.21C225.62 608.77 317.72 364.93 548.19 364.01 778.67 363.09 774.08 434.01 999.96 434.01 1225.84 434.01 1337.43 364.22 1451.72 364.01" stroke="rgba(51,121,194,0.58)" stroke-width="2"></path><path d="M858.74 605.98C950.3 578.16 918.81 317.35 1109.61 316.91 1300.41 316.47 1479.53 477.3 1611.36 479.31" stroke="rgba(51,121,194,0.58)" stroke-width="2"></path><path d="M472.45 610.07C569.56 604.2 534.06 434.3 814.38 424.27 1094.71 414.24 1314.61 160.24 1498.25 155.47" stroke="rgba(51,121,194,0.58)" stroke-width="2"></path></g><defs><mask id="SvgjsMask1030"><rect width="1440" height="560" fill="#ffffff"></rect></mask></defs></svg>